<svg xmlns="http://www.w3.org/2000/svg" viewBox="0 0 160 50">
<!-- SVG created with Arrow, by QuiverAI (https://quiver.ai) -->
  <style type="text/css">.cls-0 {fill:#045498;}
.cls-1 {fill:#0BB7EE;}
.cls-2 {fill:#00BBEE;}</style>
  <path class="cls-0" d="m79.7 23.8h4.3c3.5 0 6.2 1.8 6.2 5.3s-2.4 5.3-6.2 5.3h-4.4v-10.6h0.1zm4.3 8.6c2.3 0 3.7-1.3 3.7-3.3 0-1.8-1.2-3.3-3.7-3.3h-2v6.6h2z"/>
  <path class="cls-0" d="m91.4 30.3c0-2.2 1.7-4.1 4.4-4.1 2.8 0 4.5 1.9 4.5 4.1 0 2.3-1.7 4.1-4.4 4.1-2.8 0-4.5-1.8-4.5-4.1zm6.5 0c0-1.1-0.7-2.2-2-2.2s-2 1-2 2.2 0.7 2.3 2 2.3c1.1-0.1 2-1 2-2.3z"/>
  <path class="cls-0" d="m105.8 26.1c1.8 0 2.9 0.7 3.6 2l-1.7 1c-0.3-0.7-1-1.1-1.8-1.1-1.2 0-2.2 0.8-2.2 2.2s0.9 2.3 2.1 2.3c0.8 0 1.4-0.4 1.9-1.2l1.9 1c-0.6 1.1-1.8 2.1-3.8 2.1-2.5 0-4.5-1.7-4.5-4.1s1.9-4.2 4.5-4.2z"/>
  <path class="cls-0" d="m114.6 31.2-1.1 1v2.2h-2.5v-11.3h2.5v6.2l3.3-3.1h2.9l-3.3 3.4 3.7 4.8h-2.9l-2.6-3.2z"/>
  <path class="cls-0" d="m124.5 26.1c2.4 0 4.2 1.7 4.2 4.2v0.6h-6c0.1 0.9 0.9 1.7 2.3 1.7 0.7 0 1.6-0.3 2-0.8l1.2 1.4c-0.8 0.8-2.1 1.2-3.4 1.2-2.5 0-4.6-1.5-4.6-4.1 0.1-2.3 1.8-4.2 4.3-4.2zm-1.8 3.4h3.8c-0.1-0.7-0.7-1.7-1.9-1.7-1.1 0-1.8 1-1.9 1.7z"/>
  <path class="cls-0" d="m130.3 26.2h2.5v1.2c0.5-0.7 1.4-1.3 2.4-1.3h0.6v2.2c-0.2 0-0.5-0.1-0.7-0.1-0.8 0-1.9 0.5-2.2 1.7v4.5h-2.5v-8.2h-0.1z"/>
  <path class="cls-1" d="m137.3 23.8h4.9c2.6 0.1 5.6 1.8 5.6 5.3s-2.4 5.3-5.8 5.3h-4.7v-10.6zm4.7 8.6c1.9-0.2 3.5-1.1 3.5-3.3 0-1.8-1.2-3.3-3.5-3.3h-2v6.6h2z"/>
  <path class="cls-1" d="m149.3 23.8h5.7c2 0 3.2 1.2 3.2 2.6 0 1.2-0.6 2-1.4 2.4 1.1 0.3 1.7 1.4 1.7 2.7 0 1.7-1.2 2.9-3.8 2.9h-5.4v-10.6zm5 4.3c0.8 0 1.5-0.4 1.5-1.2 0-0.7-0.7-1.3-1.6-1.3h-2.5v2.5h2.6zm0.2 4.4c1 0 1.8-0.4 1.8-1.2s-0.5-1.4-1.7-1.4h-2.9v2.6h2.8z"/>
  <path class="cls-0" d="m82.9 8.6c-2.7-0.2-5.3-0.1-8 2.1-1.3-4.3-4.9-4.3-8-6-1.4-0.7-2.7-1.9-4.1-4-1 4.1-0.7 6.8 0.9 9.9 1.8 3.2 5.5 4.4 5.5 7 0 2.1-6.1 7.7-11.5 9.9-4.5 1.8-7.7 2.1-11.8 1.4-4.6-0.7-8.4-2.8-11.9-4.4-6.2-2.9-11.2-5.4-20.9-5.6-10.4 0.2-11.2 1.8-11.2 4.9 0.1 6.2 3.9 16.4 13.5 20.7 4.3 2.2 8.8 3.6 18.8 3.9-4.4-1.7-8.4-4.9-12.1-10.1-0.5-0.9-1-2.3-0.8-2.3 0.7 0 1.6 0.4 2.1 1.3 2.5 4.2 8.7 9.3 16.2 11 1.2 0.3 2 0.1 3.2-0.1 8.1-1.1 15.7-5.5 20.4-9.6 6.4-5.8 9.3-11.3 11.6-17.2 1.1-2.9 2.1-2.9 6.1-3.5 2.9-0.4 5.2-1.3 6.9-3 2.2-1.9 3.6-4.6 4-7.7-2.4 1.3-6 1.6-8.9 1.4z"/>
  <path class="cls-2" d="m38.3 12.7c4.9 0 13.5-0.7 15.3-3.5v-2.5c-1.1-2.4-6.6-4.2-15.3-4.2-5.9 0-15.2 1.1-15.3 4.3v2.1c1.8 2.8 9.1 3.8 15.3 3.8z"/>
  <path class="cls-2" d="m38.6 14.4c-4.5 0-12.3-0.3-15.6-3.3v6.4l0.7 1.1c1.7 0.7 4.1 1.3 6.1 2 2.6 0.4 5.5 0.7 8.8 0.7 3.8 0 13.2-0.7 14.9-3.4l0.1-0.4v-6.5c-2.4 2.4-10.4 3.4-15 3.4z"/>
  <path class="cls-2" d="m34 23c5.2 2.2 10.3 5 16.2 4.7l2-0.1 1.3-1.1 0.1-6.8c-2.4 2.5-11.7 3.4-19.6 3.3z"/>
</svg>